M48
METRIC,0000.00
T01C0.486
T02C0.9
%
T01
X+001159Y+001635
X+001286Y+001635
X+001413Y+001635
X+001540Y+001635
X+001540Y+001762
X+001413Y+001762
X+001286Y+001762
X+001159Y+001762
X+001984Y+002381
X+002111Y+002381
X+002238Y+002381
X+002238Y+002508
X+002238Y+002635
X+002111Y+002635
X+002111Y+002508
X+001984Y+002508
X+001984Y+002635
X+001984Y+002762
X+002111Y+002762
X+002111Y+002889
X+001984Y+002889
X+001984Y+003016
X+002111Y+003016
X+002111Y+003143
X+001984Y+003143
X+001984Y+003270
X+002111Y+003270
X+002111Y+003397
X+002238Y+003397
X+002365Y+003397
X+002365Y+003270
X+002365Y+003143
X+002365Y+003016
X+002492Y+003016
X+002619Y+003016
X+002619Y+003143
X+002492Y+003143
X+002492Y+003270
X+002619Y+003270
X+002619Y+003397
X+002492Y+003397
X+002746Y+003270
X+002746Y+003143
X+002746Y+003016
X+002873Y+003016
X+002873Y+003143
X+002873Y+003270
X+002873Y+002889
X+002873Y+002762
X+002746Y+002762
X+002746Y+002889
X+002619Y+002889
X+002619Y+002762
X+002492Y+002762
X+002492Y+002889
X+002365Y+002889
X+002365Y+002762
X+002365Y+002635
X+002365Y+002508
X+002492Y+002508
X+002492Y+002635
X+002619Y+002635
X+002619Y+002508
X+002746Y+002508
X+002746Y+002635
X+002873Y+002635
X+002873Y+002508
X+002873Y+002381
X+002746Y+002381
X+002619Y+002381
X+002492Y+002381
X+002365Y+002381
X+002238Y+002762
X+002238Y+002889
X+002238Y+003016
X+002238Y+003143
X+002238Y+003270
X+002714Y+004429
X+002524Y+004715
X+001540Y+004493
X+001540Y+004381
X+001413Y+004381
X+001413Y+004493
X+001286Y+004493
X+001286Y+004381
X+001159Y+004381
X+001159Y+004493
X+002905Y+001683
X+002905Y+001572
X+002905Y+001460
X+002905Y+001349
X+002905Y+001238
X+002905Y+001127
X+002778Y+001127
X+002778Y+001238
X+002778Y+001349
X+002778Y+001460
X+002778Y+001572
X+002651Y+001460
X+002651Y+001349
X+002651Y+001238
X+002651Y+001127
X+002524Y+001127
X+002524Y+001238
X+002524Y+001349
X+002524Y+001460
T02
X+002746Y+004032
X+002746Y+003682
T00
M30
