G04 DipTrace 3.3.1.0*
G04 Top.gbr*
%MOMM*%
G04 #@! TF.FileFunction,Copper,L1,Top*
G04 #@! TF.Part,Single*
G04 #@! TA.AperFunction,Conductor*
%ADD13C,0.8*%
G04 #@! TA.AperFunction,CopperBalancing*
%ADD14C,0.5*%
%ADD16R,1.3X1.5*%
G04 #@! TA.AperFunction,ComponentPad*
%ADD17R,1.5X1.5*%
%ADD18C,1.5*%
%ADD20R,2.1X1.4*%
%ADD22R,1.6X0.8*%
%ADD23R,6.0X2.0*%
%ADD24R,6.0X6.0*%
%ADD25R,2.0X3.4*%
%ADD26R,2.4X6.0*%
%ADD27R,1.0X6.0*%
%ADD29R,3.95X1.5*%
%ADD30R,9.7X10.4*%
%ADD31R,1.6X1.8*%
G04 #@! TA.AperFunction,ViaPad*
%ADD32C,1.016*%
%FSLAX35Y35*%
G04*
G71*
G90*
G75*
G01*
G04 Top*
%LPD*%
X2746250Y3682123D2*
D13*
X2301750D1*
Y4429000D1*
X2524000D1*
X2301750D2*
Y3682873D1*
X2000123D1*
X1714373Y3397123D1*
Y2603373D1*
X1666737Y2555737D1*
X1333373D1*
X2714000Y4429000D2*
D3*
X2021750Y4714750D2*
Y4429000D1*
Y3974373D1*
X1333373Y3285997D1*
Y3063750D1*
X2524000Y4714750D2*
X2301750D1*
X2793873Y4921127D2*
Y4683000D1*
X2889123Y4587750D1*
Y4159123D1*
X2762123Y4032123D1*
X2746250D1*
X1269873Y3889227D2*
X1682603D1*
X1793750Y4000373D1*
Y4889373D1*
X1857250Y4952873D1*
X2793873D1*
Y4921127D1*
D32*
X2714000Y4429000D3*
X2524000Y4714750D3*
X1158750Y1634997D3*
X1285750D3*
X1412750D3*
X1539750D3*
X1158750Y4492500D3*
X1285750D3*
X1412750D3*
X1539750D3*
X1158750Y4381373D3*
X1285750D3*
X1412750D3*
X1539750D3*
X1158750Y1762000D3*
X1285750D3*
X1412750D3*
X1539750D3*
X2651003Y1127000D3*
X2778003D3*
X2904997D3*
X2651003Y1238127D3*
X2778007D3*
X2905000D3*
X2651003Y1349250D3*
X2778007D3*
X1984250Y2381123D3*
X2111250D3*
X2238250Y2381120D3*
X2365250Y2381123D3*
X2492250D3*
X2619250Y2381127D3*
X2746250Y2381123D3*
X2873250Y2381127D3*
X1984250Y2508127D3*
X2111250D3*
X2238250Y2508120D3*
X2365250Y2508127D3*
X2492250D3*
X2619250D3*
X2746250D3*
X2873250D3*
X1984250Y2635123D3*
X2111250D3*
X2238250Y2635117D3*
X2365250Y2635123D3*
X2492250D3*
X2619250D3*
X2746250D3*
X2873250D3*
X1984250Y2762123D3*
X2111250D3*
X2238250Y2762120D3*
X2365250Y2762123D3*
X2492250D3*
X2619250D3*
X2746250D3*
X2873250D3*
X1984250Y2889123D3*
X2111250D3*
X2238250Y2889117D3*
X2365250Y2889123D3*
X2492250D3*
X2619250D3*
X2746250D3*
X2873250D3*
X1984250Y3016123D3*
X2111250D3*
X2238250Y3016117D3*
X2365250Y3016123D3*
X2492250D3*
X2619250D3*
X2746250D3*
X2873250D3*
X1984250Y3143123D3*
X2111250D3*
X2238250Y3143117D3*
X2365250Y3143123D3*
X2492250D3*
X2619250D3*
X2746250D3*
X2873250D3*
X1984250Y3270123D3*
X2111250D3*
X2238250Y3270117D3*
X2365250Y3270123D3*
X2492250D3*
X2619250D3*
X2746250D3*
X2873250D3*
X2111250Y3397123D3*
X2238250Y3397120D3*
X2365250Y3397123D3*
X2492250D3*
X2619250D3*
X2905000Y1349250D3*
X2651003Y1460373D3*
X2778007D3*
X2905000D3*
X2904997Y1571500D3*
X2905000Y1682627D3*
X2778003Y1571500D3*
X2524000Y1127000D3*
Y1238127D3*
Y1349250D3*
Y1460373D3*
X2474673Y1766707D2*
D14*
X2954400D1*
X2474673Y1717040D2*
X2954400D1*
X2474673Y1667373D2*
X2954400D1*
X2474673Y1617707D2*
X2954400D1*
X2474673Y1568040D2*
X2954400D1*
X2474673Y1518373D2*
X2954400D1*
X2474673Y1468707D2*
X2954400D1*
X2474673Y1419040D2*
X2954400D1*
X2474673Y1369373D2*
X2954400D1*
X2474673Y1319707D2*
X2954400D1*
X2474673Y1270040D2*
X2954400D1*
X2474673Y1220373D2*
X2954400D1*
X2474673Y1170707D2*
X2954400D1*
X2474673Y1121040D2*
X2954400D1*
X2959307Y1816373D2*
X2469673D1*
X2469627Y1072557D1*
X2959327Y1072627D1*
X2959373Y1816443D1*
X1093547Y4465460D2*
X1604990D1*
X1093547Y4415793D2*
X1604990D1*
X1093547Y4366127D2*
X1604990D1*
X1093547Y4316460D2*
X1604990D1*
X1093547Y4266793D2*
X1604990D1*
X1093547Y4217127D2*
X1604990D1*
X1093547Y4167460D2*
X1604990D1*
X1609933Y4515127D2*
X1088580D1*
X1088500Y4120583D1*
X1609920Y4120627D1*
X1610000Y4515170D1*
X1093547Y3941583D2*
X1604990D1*
X1093547Y3891917D2*
X1604990D1*
X1093547Y3842250D2*
X1604990D1*
X1609933Y3991250D2*
X1088580D1*
X1088500Y3803060D1*
X1609920Y3803127D1*
X1610000Y3991317D1*
X1093547Y1766710D2*
X1604990D1*
X1093547Y1717043D2*
X1604990D1*
X1093547Y1667377D2*
X1604990D1*
X1093547Y1617710D2*
X1604990D1*
X1088567Y1612377D2*
X1609920D1*
X1610000Y1816427D1*
X1088580Y1816377D1*
X1088500Y1612327D1*
X1093547Y2687457D2*
X1604990D1*
X1093547Y2637790D2*
X1604990D1*
X1093547Y2588123D2*
X1604990D1*
X1093547Y2538457D2*
X1604990D1*
X1093547Y2488790D2*
X1604990D1*
X1093547Y2439123D2*
X1604990D1*
X1093547Y2389457D2*
X1604990D1*
X1093547Y2339790D2*
X1604990D1*
X1093547Y2290123D2*
X1604990D1*
X1093547Y2240457D2*
X1604990D1*
X1093547Y2190790D2*
X1604990D1*
X1093547Y2141123D2*
X2319393D1*
X1093547Y2091457D2*
X2319393D1*
X1093547Y2041790D2*
X2319393D1*
X1093547Y1992123D2*
X2319393D1*
X1775407Y1942457D2*
X2319393D1*
X1776137Y1892790D2*
X2319393D1*
X1776137Y1843123D2*
X2319393D1*
X1776137Y1793457D2*
X2319393D1*
X1776137Y1743790D2*
X2319393D1*
X1776137Y1694123D2*
X2319393D1*
X1776137Y1644457D2*
X2319393D1*
X1776137Y1594790D2*
X2319393D1*
X1776137Y1545123D2*
X2319393D1*
X1776137Y1495457D2*
X2319393D1*
X1776137Y1445790D2*
X2319393D1*
X1776137Y1396123D2*
X2319393D1*
X1776137Y1346457D2*
X2319393D1*
X1776137Y1296790D2*
X2319393D1*
X1776137Y1247123D2*
X2319393D1*
X1776137Y1197457D2*
X2319393D1*
X1776137Y1147790D2*
X2319393D1*
X1776137Y1098123D2*
X2319393D1*
X1609933Y2737123D2*
X1088580D1*
X1088500Y1961590D1*
X1750033Y1961317D1*
X1757473Y1958900D1*
X1763800Y1954300D1*
X1768400Y1947973D1*
X1770817Y1940533D1*
X1771123Y1866623D1*
Y1072653D1*
X2324443Y1072627D1*
X2324373Y2165713D1*
X1631090Y2165933D1*
X1623650Y2168350D1*
X1617323Y2172950D1*
X1612723Y2179277D1*
X1610307Y2186717D1*
X1610000Y2260627D1*
Y2737047D1*
X2045160Y3481207D2*
X2590057D1*
X1995487Y3431540D2*
X2954367D1*
X1945810Y3381873D2*
X2954367D1*
X1896227Y3332207D2*
X2954367D1*
X1887297Y3282540D2*
X2954367D1*
X1887297Y3232873D2*
X2954367D1*
X1887297Y3183207D2*
X2954367D1*
X1887297Y3133540D2*
X2954367D1*
X1887297Y3083873D2*
X2954367D1*
X1887297Y3034207D2*
X2954367D1*
X1887297Y2984540D2*
X2954367D1*
X1887297Y2934873D2*
X2954367D1*
X1887297Y2885207D2*
X2954367D1*
X1887297Y2835540D2*
X2954367D1*
X1887297Y2785873D2*
X2954367D1*
X1887297Y2736207D2*
X2954367D1*
X1887297Y2686540D2*
X2954367D1*
X1887297Y2636873D2*
X2954367D1*
X1887297Y2587207D2*
X2954367D1*
X1887297Y2537540D2*
X2954367D1*
X1887297Y2487873D2*
X2954367D1*
X1887297Y2438207D2*
X2954367D1*
X1887297Y2388540D2*
X2954367D1*
X1887297Y2338873D2*
X2954367D1*
X2474367Y2289207D2*
X2954367D1*
X2474640Y2239540D2*
X2954367D1*
X2474640Y2189873D2*
X2954367D1*
X2474640Y2140207D2*
X2954367D1*
X2474640Y2090540D2*
X2954367D1*
X2474640Y2040873D2*
X2954367D1*
X2474640Y1991207D2*
X2954367D1*
X2469693Y1961627D2*
X2959327D1*
X2959373Y3435703D1*
X2647090Y3435933D1*
X2639650Y3438350D1*
X2633323Y3442950D1*
X2545397Y3530873D1*
X2089903D1*
X1882233Y3323253D1*
X1882250Y2310880D1*
X2448537Y2310570D1*
X2455977Y2308153D1*
X2462303Y2303553D1*
X2466903Y2297227D1*
X2469320Y2289787D1*
X2469627Y2215877D1*
Y1961670D1*
X1093547Y3624083D2*
X1541463D1*
X1093547Y3574417D2*
X1541463D1*
X1093547Y3524750D2*
X1541463D1*
X1093547Y3475083D2*
X1541463D1*
X1093547Y3425417D2*
X1541463D1*
X1093547Y3375750D2*
X1541463D1*
X1093547Y3326083D2*
X1541463D1*
X1093547Y3276417D2*
X1541463D1*
X1093547Y3226750D2*
X1541463D1*
X1093547Y3177083D2*
X1541463D1*
X1093547Y3127417D2*
X1541463D1*
X1093547Y3077750D2*
X1541463D1*
X1093547Y3028083D2*
X1541463D1*
X1093547Y2978417D2*
X1541463D1*
X1093547Y2928750D2*
X1541463D1*
X1088567Y2882373D2*
X1546483D1*
X1546500Y3673767D1*
X1088517Y3673750D1*
X1088500Y2882357D1*
D16*
X2524000Y4429000D3*
X2714000D3*
D17*
X2746250Y4032123D3*
D18*
Y3682123D3*
D20*
X2595450Y1690550D3*
Y2080537D3*
D22*
X1269873Y3889227D3*
Y4229227D3*
D23*
X1348500Y4493600D3*
D24*
X2048500Y1338830D3*
D23*
X1348500Y1638830D3*
D25*
X2793873Y4921127D3*
D26*
X1168500Y1333373D3*
D27*
X1598500D3*
X1098500Y4778250D3*
D26*
X1529500D3*
D29*
X1333373Y3063750D3*
Y2555737D3*
D30*
X2363373Y2809743D3*
D31*
X2301750Y4714750D3*
X2021750D3*
X2301750Y4429000D3*
X2021750D3*
M02*
