G04 DipTrace 3.3.1.0*
G04 TopSilk.gbr*
%MOMM*%
G04 #@! TF.FileFunction,Legend,Top*
G04 #@! TF.Part,Single*
%ADD10C,0.25*%
%ADD19O,0.60002X0.60023*%
%ADD21C,0.40002*%
%ADD28O,0.39045X0.39104*%
%ADD63C,0.11765*%
%FSLAX35Y35*%
G04*
G71*
G90*
G75*
G01*
G04 TopSilk*
%LPD*%
X2418947Y4364050D2*
D10*
Y4493950D1*
X2746245Y4257123D2*
X1496248D1*
X2859080Y4034243D2*
X2919125D1*
X2889102Y4064243D2*
Y4004243D1*
X2746245Y3457123D2*
X1496248D1*
Y4257123D2*
Y3457123D1*
X2746245Y4257123D2*
Y4157123D1*
Y3557123D2*
Y3457123D1*
Y3907123D2*
Y3807123D1*
X2450445Y1665553D2*
Y2105519D1*
X2740448Y1665553D2*
Y2105519D1*
D19*
X2595461Y1565555D3*
X1189867Y3969207D2*
D10*
Y4149239D1*
X1349873Y3969207D2*
Y4149239D1*
D21*
X1269870Y3794225D3*
X3028873Y5091103D2*
D10*
Y5791127D1*
X2453873Y5091103D2*
Y5791127D1*
X3028873Y5091103D2*
X2933883D1*
X2453873D2*
X2653858D1*
X3028873Y5791127D2*
X2913873D1*
Y5471119D1*
X2803876Y5791127D2*
Y5471119D1*
Y5791127D2*
X2453873D1*
X2913873Y5471119D2*
X2803876D1*
X1573417Y3319759D2*
Y2299727D1*
Y3319759D2*
X1833375D1*
X1573417Y2299727D2*
X1833375D1*
D28*
X1171493Y3187367D3*
X2191670Y4794670D2*
D10*
X2131830D1*
X2191670Y4634830D2*
X2131830D1*
X2191670Y4508920D2*
X2131830D1*
X2191670Y4349080D2*
X2131830D1*
X2605402Y4597398D2*
D63*
X2601781Y4604642D1*
X2594452Y4611970D1*
X2587209Y4615592D1*
X2572637D1*
X2565309Y4611970D1*
X2558065Y4604642D1*
X2554359Y4597398D1*
X2550737Y4586448D1*
Y4568170D1*
X2554359Y4557304D1*
X2558065Y4549976D1*
X2565309Y4542732D1*
X2572637Y4539026D1*
X2587209D1*
X2594452Y4542732D1*
X2601781Y4549976D1*
X2605402Y4557304D1*
X2628932Y4600936D2*
X2636260Y4604642D1*
X2647210Y4615508D1*
Y4539026D1*
X2878203Y3583118D2*
X2874581Y3590362D1*
X2867253Y3597690D1*
X2860009Y3601312D1*
X2845437D1*
X2838109Y3597690D1*
X2830865Y3590362D1*
X2827159Y3583118D1*
X2823537Y3572168D1*
Y3553890D1*
X2827159Y3543024D1*
X2830865Y3535696D1*
X2838109Y3528452D1*
X2845437Y3524746D1*
X2860009D1*
X2867253Y3528452D1*
X2874581Y3535696D1*
X2878203Y3543024D1*
X2905438Y3583034D2*
Y3586656D1*
X2909060Y3593984D1*
X2912682Y3597606D1*
X2920010Y3601228D1*
X2934582D1*
X2941826Y3597606D1*
X2945448Y3593984D1*
X2949154Y3586656D1*
Y3579412D1*
X2945448Y3572084D1*
X2938204Y3561218D1*
X2901732Y3524746D1*
X2952776D1*
X2306481Y1768875D2*
Y1692310D1*
X2332003D1*
X2342953Y1696016D1*
X2350281Y1703260D1*
X2353903Y1710588D1*
X2357525Y1721453D1*
Y1739731D1*
X2353903Y1750681D1*
X2350281Y1757925D1*
X2342953Y1765253D1*
X2332003Y1768875D1*
X2306481D1*
X2381054Y1754219D2*
X2388382Y1757925D1*
X2399332Y1768791D1*
Y1692310D1*
X1228158Y3587208D2*
X1304724D1*
Y3612730D1*
X1301018Y3623680D1*
X1293774Y3631008D1*
X1286446Y3634630D1*
X1275580Y3638252D1*
X1257302D1*
X1246352Y3634630D1*
X1239108Y3631008D1*
X1231780Y3623680D1*
X1228158Y3612730D1*
Y3587208D1*
X1246436Y3665488D2*
X1242814D1*
X1235486Y3669110D1*
X1231864Y3672732D1*
X1228242Y3680060D1*
Y3694632D1*
X1231864Y3701875D1*
X1235486Y3705497D1*
X1242814Y3709203D1*
X1250058D1*
X1257386Y3705497D1*
X1268252Y3698253D1*
X1304724Y3661781D1*
Y3712825D1*
X1123279Y4317909D2*
Y4259621D1*
X1119657Y4248671D1*
X1115951Y4245049D1*
X1108707Y4241343D1*
X1101379D1*
X1094135Y4245049D1*
X1090513Y4248671D1*
X1086807Y4259621D1*
Y4266865D1*
X1146808Y4303252D2*
X1154136Y4306959D1*
X1165086Y4317824D1*
Y4241343D1*
X1815706Y1771392D2*
Y1713104D1*
X1812084Y1702154D1*
X1808378Y1698532D1*
X1801134Y1694826D1*
X1793806D1*
X1786562Y1698532D1*
X1782940Y1702154D1*
X1779234Y1713104D1*
Y1720348D1*
X1842942Y1753114D2*
Y1756736D1*
X1846563Y1764064D1*
X1850185Y1767686D1*
X1857513Y1771308D1*
X1872085D1*
X1879329Y1767686D1*
X1882951Y1764064D1*
X1886657Y1756736D1*
Y1749492D1*
X1882951Y1742164D1*
X1875707Y1731298D1*
X1839235Y1694826D1*
X1890279D1*
X2544263Y4999222D2*
Y4940934D1*
X2540641Y4929984D1*
X2536935Y4926362D1*
X2529691Y4922656D1*
X2522363D1*
X2515119Y4926362D1*
X2511497Y4929984D1*
X2507791Y4940934D1*
Y4948178D1*
X2575120Y4999138D2*
X2615130D1*
X2593314Y4969994D1*
X2604264D1*
X2611508Y4966372D1*
X2615130Y4962750D1*
X2618836Y4951800D1*
Y4944556D1*
X2615130Y4933606D1*
X2607886Y4926278D1*
X2596936Y4922656D1*
X2585986D1*
X2575120Y4926278D1*
X2571498Y4929984D1*
X2567792Y4937228D1*
X1673760Y2233485D2*
X1666516Y2229948D1*
X1659188Y2222620D1*
X1655566Y2215291D1*
X1651860Y2204341D1*
Y2186148D1*
X1655566Y2175198D1*
X1659188Y2167954D1*
X1666516Y2160626D1*
X1673760Y2157004D1*
X1688332D1*
X1695660Y2160626D1*
X1702904Y2167954D1*
X1706526Y2175198D1*
X1710232Y2186148D1*
Y2204341D1*
X1706526Y2215291D1*
X1702904Y2222620D1*
X1695660Y2229948D1*
X1688332Y2233485D1*
X1673760D1*
X1684710Y2171576D2*
X1706526Y2149676D1*
X1733762Y2218829D2*
X1741090Y2222535D1*
X1752040Y2233401D1*
Y2156920D1*
X1788758Y4722217D2*
X1821523D1*
X1832473Y4725923D1*
X1836180Y4729545D1*
X1839802Y4736789D1*
Y4744117D1*
X1836180Y4751361D1*
X1832473Y4755067D1*
X1821523Y4758689D1*
X1788758D1*
Y4682123D1*
X1814280Y4722217D2*
X1839802Y4682123D1*
X1863331Y4744032D2*
X1870659Y4747739D1*
X1881609Y4758604D1*
Y4682123D1*
X1776878Y4420700D2*
X1809644D1*
X1820594Y4424406D1*
X1824300Y4428028D1*
X1827922Y4435272D1*
Y4442600D1*
X1824300Y4449844D1*
X1820594Y4453550D1*
X1809644Y4457172D1*
X1776878D1*
Y4380606D1*
X1802400Y4420700D2*
X1827922Y4380606D1*
X1855158Y4438894D2*
Y4442516D1*
X1858779Y4449844D1*
X1862401Y4453466D1*
X1869729Y4457088D1*
X1884301D1*
X1891545Y4453466D1*
X1895167Y4449844D1*
X1898873Y4442516D1*
Y4435272D1*
X1895167Y4427944D1*
X1887923Y4417078D1*
X1851451Y4380606D1*
X1902495D1*
M02*
